<svg xmlns="http://www.w3.org/2000/svg" viewBox="0 0 64 64"><g fill="none" stroke-linecap="round" stroke-linejoin="round"><path d="M28.21 43.33H17.74a9.43 9.43 0 1 1 0-18.86 9.05 9.05 0 0 1 2.42.33A12.56 12.56 0 0 1 42 19.56a6.14 6.14 0 0 1 1.9-.3 6.29 6.29 0 0 1 6.29 6.28 6.21 6.21 0 0 1-.47 2.46 7.86 7.86 0 0 1-2.14 15.38H34.49" stroke="#646464"/><path d="M42 19.56a6.27 6.27 0 0 0-4.38 6" stroke="#646464"/><path stroke="#00a44d" d="M31.35 30.76v18.85m0-18.85-3.14 3.14m3.14-3.14 3.14 3.14"/></g></svg>