<svg xmlns="http://www.w3.org/2000/svg" viewBox="0 0 24 24"><path d="m15.74 19.06-.25 1-1.81.68a5 5 0 0 1-1.57.23 3.11 3.11 0 0 1-2.11-.64 2.17 2.17 0 0 1-.76-1.7 5.73 5.73 0 0 1 .06-.81c0-.28.1-.6.18-.95l.95-3.33c.08-.32.15-.63.21-.91a3.89 3.89 0 0 0 .09-.78 1.21 1.21 0 0 0-.27-.9 1.52 1.52 0 0 0-1-.25 2.55 2.55 0 0 0-.75.12L8 11l.26-1c.61-.25 1.2-.46 1.77-.64a5.26 5.26 0 0 1 1.6-.27 3 3 0 0 1 2.1.66 2.2 2.2 0 0 1 .74 1.71c0 .14 0 .4-.05.76a5.85 5.85 0 0 1-.19 1l-.94 3.32a8.45 8.45 0 0 0-.21.92 4.86 4.86 0 0 0-.09.78 1.11 1.11 0 0 0 .3.9 1.66 1.66 0 0 0 1 .24 3 3 0 0 0 .78-.12 4.51 4.51 0 0 0 .67-.2zM16 5.1a1.93 1.93 0 0 1-.66 1.48 2.36 2.36 0 0 1-3.17 0 2 2 0 0 1 0-3 2.34 2.34 0 0 1 3.17 0A2 2 0 0 1 16 5.1z" fill="#65b0ff"/></svg>